<svg xmlns="http://www.w3.org/2000/svg" viewBox="0 0 512 512" width="100%" height="100%">
  <defs>
    <filter id="glow" x="-20%" y="-20%" width="140%" height="140%">
      <feGaussianBlur stdDeviation="12" result="blur" />
      <feComposite in="SourceGraphic" in2="blur" operator="over" />
    </filter>
  </defs>
  <circle cx="256" cy="256" r="230" fill="#0d0d11" stroke="#ff2a4b" stroke-width="12" stroke-opacity="0.85" />
  <path d="M256 185c12-32 28-52 42-72-2 26 16 46 47 41 42-10 68 10 79 36 10 26 15 52-5 88-21 36-52 52-84 67-37-16-52-10-79 16-27-26-42-32-79-16-32-15-63-31-84-67-20-36-15-62-5-88 11-26 37-46 79-36 31 5 49-15 47-41 14 20 30 40 42 72z" fill="#ff2a4b" filter="url(#glow)" />
</svg>